<svg width="48" height="48" viewBox="0 0 48 48" fill="none" xmlns="http://www.w3.org/2000/svg">
  <!-- Building shape from Rexos logo, centered for favicon -->
  <g transform="translate(10, 7) scale(1.0)">
    <path d="M3.85579 21.4162V22.4302C3.85579 25.5011 3.85707 28.5717 3.85963 31.6422C3.85963 32.7863 3.19387 33.4685 2.0563 33.4845C1.39693 33.4934 0.736928 33.4845 0.0161068 33.4845V32.8734C0.0154666 27.6329 0.021228 22.3911 0.00202322 17.1493C0.00202322 16.6824 0.152461 16.4229 0.534637 16.1705C1.63379 15.4435 2.69966 14.669 3.85899 13.853V17.7329H4.59518C8.30811 17.7399 12.0242 17.6874 15.734 17.7752C17.931 17.827 19.703 18.8641 20.6767 20.8723C21.6369 22.8536 21.5774 24.8938 20.2926 26.7547C19.3829 28.0755 18.0296 28.6629 16.3677 28.7097C16.8933 29.429 17.5072 30.028 18.3522 30.0549C20.5525 30.1234 22.7559 30.0779 25.0099 30.0779V29.2413C25.0099 23.3541 25.0131 17.4668 25.0195 11.5796C25.0195 11.0671 24.8915 10.7392 24.4434 10.4317C21.3175 8.27104 18.2146 6.07581 15.0855 3.88058L0.00202322 14.3641C0.00202322 13.01 -0.00821935 11.7519 0.0173871 10.4945C0.0173871 10.3555 0.213276 10.1895 0.355392 10.0896C4.64788 7.07852 8.94251 4.07254 13.2393 1.07169C13.7181 0.737311 14.1758 0.367062 14.6854 0.0864931C14.8883 -0.0243253 15.2782 -0.0345744 15.4581 0.0903365C19.6831 3.025 23.8969 5.97695 28.0993 8.9462C28.2427 9.04741 28.3804 9.27481 28.381 9.44328C28.3925 17.4038 28.394 25.3642 28.3855 33.3243C28.3764 33.3727 28.3615 33.4198 28.3413 33.4646C28.2751 33.4788 28.2079 33.488 28.1403 33.4922C25.0714 33.4922 22.0024 33.4697 18.9341 33.4922C16.9797 33.5082 15.3051 32.833 13.882 31.5416C11.74 29.5981 9.63132 27.6181 7.50599 25.6567C7.43813 25.5927 7.33699 25.5696 7.24992 25.5286L7.33699 25.412C10.1428 25.412 12.9486 25.4229 15.7545 25.4075C17.1026 25.4005 17.9483 24.61 17.9419 23.4218C17.9355 22.2688 16.9586 21.3809 15.6738 21.3796C11.9203 21.3771 8.16749 21.3771 4.41529 21.3796C4.24565 21.3848 4.07473 21.4033 3.85579 21.4162Z" fill="#1A3763"/>
    <!-- "R" letter squares -->
    <path d="M12.4915 9.68799H14.5707V11.8755H12.4915V9.68799Z" fill="#ffffff"/>
    <path d="M12.4954 12.8506H14.5695V15.0285H12.4954V12.8506Z" fill="#ffffff"/>
    <path d="M17.6065 9.70215V11.8692H15.5317V9.70215H17.6065Z" fill="#ffffff"/>
    <path d="M15.5239 15.0131V12.855H17.5987V15.0131H15.5239Z" fill="#ffffff"/>
  </g>
</svg>
